<svg xmlns="http://www.w3.org/2000/svg" viewBox="0 0 64 64" width="64" height="64">
  <defs>
    <linearGradient id="brain-gradient" x1="0%" y1="0%" x2="100%" y2="100%">
      <stop offset="0%" style="stop-color:#8B5CF6"/>
      <stop offset="100%" style="stop-color:#3B82F6"/>
    </linearGradient>
  </defs>
  
  <!-- Brain shape -->
  <path d="M32 8c-8 0-14 6-14 14 0 2 0.5 4 1.5 5.5-1 1-1.5 2.5-1.5 4.5 0 3 2 5.5 4.5 6.5-0.5 1-0.5 2-0.5 3 0 4 3 7 7 7h8c4 0 7-3 7-7 0-1 0-2-0.5-3 2.5-1 4.5-3.5 4.5-6.5 0-2-0.5-3.5-1.5-4.5 1-1.5 1.5-3.5 1.5-5.5 0-8-6-14-14-14z" fill="url(#brain-gradient)"/>
  
  <!-- Sparkle -->
  <circle cx="48" cy="16" r="2" fill="#FCD34D"/>
  <path d="M48 12l1 2 2 1-2 1-1 2-1-2-2-1 2-1z" fill="#FCD34D"/>
  
  <!-- Sparkle -->
  <circle cx="16" cy="48" r="1.5" fill="#FCD34D"/>
  <path d="M16 45l0.8 1.2 1.2 0.8-1.2 0.8-0.8 1.2-0.8-1.2-1.2-0.8 1.2-0.8z" fill="#FCD34D"/>
</svg>
